<svg width="13" height="13" viewBox="0 0 13 13" fill="none" xmlns="http://www.w3.org/2000/svg">
<path d="M12.536 3.30692e-08C12.4639 -2.71713e-05 12.3927 0.0167307 12.3282 0.0489678L8.80985 1.80863L4.83138 0.0401536C4.82488 0.0373788 4.81745 0.0368891 4.81049 0.0341143C4.79259 0.027422 4.77428 0.0218451 4.7557 0.0174108C4.73723 0.0124324 4.71846 0.0085422 4.69952 0.00579456C4.66182 0.00269326 4.62392 0.00269326 4.58624 0.00579456C4.56731 0.0085422 4.54854 0.0124324 4.53007 0.0174108C4.51149 0.0218451 4.49318 0.027422 4.47528 0.0341143C4.46831 0.0368891 4.46089 0.0373516 4.45438 0.0401536L0.275798 1.89731C0.108056 1.9718 -2.71992e-05 2.13813 5.13428e-09 2.32165V12.536C8.16181e-05 12.6931 0.0795455 12.8394 0.211242 12.9251C0.342965 13.0108 0.509102 13.0241 0.652768 12.9603L4.64286 11.1868L8.63294 12.9603C8.63991 12.9631 8.64733 12.9603 8.6543 12.9645C8.76671 13.0148 8.89574 13.0119 9.00575 12.9566C9.01318 12.9534 9.02153 12.9566 9.02896 12.9515L12.7432 11.0944C12.9007 11.0157 13.0001 10.8548 13 10.6788V0.464514C13.0002 0.208086 12.7924 0.00010885 12.536 3.30692e-08ZM4.17859 10.377L0.928566 11.8214V2.62345L4.17859 1.17904V10.377ZM8.35717 11.8214L5.10715 10.377V1.17904L8.35717 2.62342V11.8214ZM12.0715 10.3919L9.28574 11.7848V2.60857L12.0715 1.21571V10.3919Z" fill="#202124"/>
</svg>
